<?xml version="1.0" encoding="UTF-8" standalone="no"?>
<svg
   xmlns:osb="http://www.openswatchbook.org/uri/2009/osb"
   xmlns:dc="http://purl.org/dc/elements/1.1/"
   xmlns:cc="http://creativecommons.org/ns#"
   xmlns:rdf="http://www.w3.org/1999/02/22-rdf-syntax-ns#"
   xmlns:svg="http://www.w3.org/2000/svg"
   xmlns="http://www.w3.org/2000/svg"
   xmlns:xlink="http://www.w3.org/1999/xlink"
   xmlns:sodipodi="http://sodipodi.sourceforge.net/DTD/sodipodi-0.dtd"
   xmlns:inkscape="http://www.inkscape.org/namespaces/inkscape"
   version="1.1"
   id="Layer_2"
   x="0px"
   y="0px"
   width="600"
   height="600"
   viewBox="0 0 600 600"
   enable-background="new 0 0 600 600"
   xml:space="preserve"
   inkscape:version="0.91 r13725"
   sodipodi:docname="logo-inkscape.svg"><metadata
     id="metadata17"><rdf:RDF><cc:Work
         rdf:about=""><dc:format>image/svg+xml</dc:format><dc:type
           rdf:resource="http://purl.org/dc/dcmitype/StillImage" /><dc:title /></cc:Work></rdf:RDF></metadata><defs
     id="defs15"><linearGradient
       id="linearGradient4194"
       osb:paint="gradient"><stop
         style="stop-color:#ffffff;stop-opacity:1"
         offset="0"
         id="stop4196" /><stop
         style="stop-color:#ffa00b;stop-opacity:1"
         offset="1"
         id="stop4198" /></linearGradient><linearGradient
       id="linearGradient4158"><stop
         style="stop-color:#000000;stop-opacity:1;"
         offset="0"
         id="stop4160" /></linearGradient><linearGradient
       id="background"
       osb:paint="solid"><stop
         style="stop-color:#ffa00b;stop-opacity:1;"
         offset="0"
         id="stop4154" /></linearGradient><linearGradient
       id="linearGradient4161"><stop
         style="stop-color:#0bc9ff;stop-opacity:1;"
         offset="0"
         id="stop4163" /></linearGradient><linearGradient
       id="linearGradient4155"><stop
         style="stop-color:#00d8ff;stop-opacity:1;"
         offset="0"
         id="stop4157" /></linearGradient><linearGradient
       id="React_Color"
       osb:paint="solid"><stop
         style="stop-color:#ffb039;stop-opacity:1;"
         offset="0"
         id="stop4147" /></linearGradient><linearGradient
       inkscape:collect="always"
       xlink:href="#React_Color"
       id="linearGradient4149"
       x1="127.29538"
       y1="300.3587"
       x2="472.49503"
       y2="300.3587"
       gradientUnits="userSpaceOnUse" /><linearGradient
       inkscape:collect="always"
       xlink:href="#React_Color"
       id="linearGradient4151"
       x1="18.628"
       y1="300.12799"
       x2="580.42999"
       y2="300.12799"
       gradientUnits="userSpaceOnUse" /><linearGradient
       inkscape:collect="always"
       xlink:href="#React_Color"
       id="linearGradient4153"
       x1="127.15663"
       y1="300.00067"
       x2="471.49561"
       y2="300.00067"
       gradientUnits="userSpaceOnUse" /><linearGradient
       inkscape:collect="always"
       xlink:href="#React_Color"
       id="linearGradient4159"
       x1="249.36198"
       y1="299.62799"
       x2="349.69598"
       y2="299.62799"
       gradientUnits="userSpaceOnUse" /><radialGradient
       inkscape:collect="always"
       xlink:href="#linearGradient4194"
       id="radialGradient4204"
       cx="315"
       cy="315"
       fx="315"
       fy="315"
       r="315"
       gradientUnits="userSpaceOnUse"
       gradientTransform="translate(-15,-15)" /></defs><sodipodi:namedview
     pagecolor="#ffffff"
     bordercolor="#666666"
     borderopacity="1"
     objecttolerance="10"
     gridtolerance="10"
     guidetolerance="10"
     inkscape:pageopacity="0"
     inkscape:pageshadow="2"
     inkscape:window-width="1280"
     inkscape:window-height="751"
     id="namedview13"
     showgrid="false"
     inkscape:zoom="0.9"
     inkscape:cx="41.849948"
     inkscape:cy="285.66943"
     inkscape:window-x="0"
     inkscape:window-y="555"
     inkscape:window-maximized="1"
     inkscape:current-layer="Layer_2"
     fit-margin-top="0"
     fit-margin-left="0"
     fit-margin-right="0"
     fit-margin-bottom="0" /><rect
     width="600"
     height="600"
     id="rect3"
     ry="67.372879"
     x="0"
     y="0"
     style="fill:url(#radialGradient4204);fill-opacity:1;fill-rule:nonzero;stroke:none;stroke-width:30;stroke-linejoin:round;stroke-miterlimit:4;stroke-dasharray:none" /><circle
     cx="299.52899"
     cy="299.62799"
     r="50.167"
     id="circle5"
     style="fill:url(#linearGradient4159);fill-opacity:1" /><path
     stroke-miterlimit="10"
     d="m 299.529,197.628 c 67.356,0 129.928,9.665 177.107,25.907 56.844,19.569 91.794,49.233 91.794,76.093 0,27.991 -37.041,59.503 -98.083,79.728 -46.151,15.291 -106.879,23.272 -170.818,23.272 -65.554,0 -127.63,-7.492 -174.29,-23.441 -59.046,-20.182 -94.611,-52.103 -94.611,-79.559 0,-26.642 33.37,-56.076 89.415,-75.616 47.355,-16.509 111.472,-26.384 179.486,-26.384 z"
     id="path7"
     style="fill:none;fill-opacity:1;stroke:url(#linearGradient4151);stroke-width:24;stroke-miterlimit:10;stroke-opacity:1"
     inkscape:connector-curvature="0" /><path
     stroke-miterlimit="10"
     d="m 210.736,248.922 c 33.649,-58.348 73.281,-107.724 110.92,-140.48 45.35,-39.466 88.507,-54.923 111.775,-41.505 24.248,13.983 33.042,61.814 20.067,124.796 -9.81,47.618 -33.234,104.212 -65.176,159.601 -32.749,56.788 -70.25,106.819 -107.377,139.272 -46.981,41.068 -92.4,55.929 -116.185,42.213 -23.079,-13.31 -31.906,-56.921 -20.834,-115.233 9.355,-49.27 32.832,-109.745 66.81,-168.664 z"
     id="path9"
     style="fill:none;stroke:url(#linearGradient4153);stroke-width:24;stroke-miterlimit:10;stroke-opacity:1"
     inkscape:connector-curvature="0" /><path
     stroke-miterlimit="10"
     d="M 210.821,351.482 C 177.075,293.19 154.09,234.195 144.509,185.227 132.965,126.228 141.127,81.118 164.373,67.661 c 24.224,-14.024 70.055,2.244 118.14,44.94 36.356,32.28 73.688,80.837 105.723,136.173 32.844,56.733 57.461,114.209 67.036,162.582 12.117,61.213 2.309,107.984 -21.453,121.74 C 410.762,546.444 368.57,532.312 323.58,493.597 285.567,460.886 244.898,410.344 210.821,351.482 Z"
     id="path11"
     style="fill:none;stroke:url(#linearGradient4149);stroke-width:24;stroke-miterlimit:10;stroke-opacity:1"
     inkscape:connector-curvature="0" /><text
     xml:space="preserve"
     style="font-style:normal;font-variant:normal;font-weight:normal;font-stretch:normal;font-size:350px;line-height:125%;font-family:Roboto;-inkscape-font-specification:Roboto;letter-spacing:0px;word-spacing:0px;fill:#323232;fill-opacity:1;stroke:none;stroke-width:1px;stroke-linecap:butt;stroke-linejoin:miter;stroke-opacity:1"
     x="135.55556"
     y="561.11115"
     id="text4167"
     sodipodi:linespacing="125%"><tspan
       sodipodi:role="line"
       id="tspan4169"
       x="135.55556"
       y="561.11115"
       style="font-style:normal;font-variant:normal;font-weight:normal;font-stretch:normal;font-size:312.5px;font-family:Roboto;-inkscape-font-specification:Roboto;fill:#323232;fill-opacity:1">HN</tspan></text>
<text
     xml:space="preserve"
     style="font-style:normal;font-weight:normal;font-size:40px;line-height:125%;font-family:sans-serif;letter-spacing:0px;word-spacing:0px;fill:#000000;fill-opacity:1;stroke:none;stroke-width:1px;stroke-linecap:butt;stroke-linejoin:miter;stroke-opacity:1"
     x="137.77779"
     y="244.44446"
     id="text4171"
     sodipodi:linespacing="125%"><tspan
       sodipodi:role="line"
       id="tspan4173"
       x="137.77779"
       y="244.44446" /></text>
</svg>